<svg width="16" height="16" viewBox="0 0 16 16" fill="none" xmlns="http://www.w3.org/2000/svg">
<style>
:root {
    --accent-danger: #FF7033;
    --accent-danger: color(display-p3 1 0.44 0.2);
}

@media (prefers-color-scheme: dark) {
    :root {
        --accent-danger: #CC3D00;
        --accent-danger: color(display-p3 0.8 0.24 0);
    }
}  
</style>
<path fill-rule="evenodd" clip-rule="evenodd" d="M4.19604 11.8077C5.5593 11.5338 5.53207 12.3945 5.22041 13.4334C5.11966 13.7692 5.29565 14.1284 5.63066 14.2319C7.24936 14.7317 8.75096 14.7317 10.3697 14.2319C10.7047 14.1284 10.8807 13.7692 10.7799 13.4334C10.4683 12.3946 10.4409 11.5338 11.8041 11.8077C12.7082 11.9894 13.2269 11.3323 13.3418 10.6537C13.4121 10.2384 13.2857 9.57411 13.1579 8.90284C13.0217 8.18744 12.884 7.46415 12.9814 7.02596C13.7294 3.66091 11.7385 0.899719 7.99999 0.906323C4.2752 0.912903 2.27255 3.66677 3.0193 7.02643C3.1167 7.46465 2.97881 8.18791 2.84244 8.90321C2.71455 9.57404 2.588 10.2379 2.65811 10.653C2.77276 11.3318 3.29159 11.9894 4.19604 11.8077ZM5.42187 6.93758L7.79429 7.89171C7.79429 7.89171 7.79429 8.63453 7.63666 9.38698C7.52456 9.92209 7.06629 10.2882 6.52389 10.3569C6.02565 10.42 5.3774 10.4668 4.7696 10.4033C2.94018 10.2121 3.67083 6.23335 5.42187 6.93758ZM8.20615 7.89171L10.5786 6.93758C12.3296 6.23335 13.0603 10.2121 11.2308 10.4033C10.623 10.4668 9.9748 10.42 9.47656 10.3569C8.93416 10.2882 8.47588 9.92209 8.36378 9.38698C8.20615 8.63453 8.20615 7.89171 8.20615 7.89171Z" style="fill:var(--accent-danger);fill-opacity:1;"/>
</svg>
