<svg width="274" height="48" viewBox="0 0 274 48" fill="none" xmlns="http://www.w3.org/2000/svg">
<style>
:root {
    --accent-primary: #00A31B;
    --accent-primary: color(display-p3 0 0.64 0.1067);
}
@media (prefers-color-scheme: dark) {
    :root {
        --accent-primary: #C9FF00;
        --accent-primary: color(display-p3 0.8333 1 0);
    }
}
</style>
<g clip-path="url(#clip0_11_38)">
<mask id="mask0_11_38" style="mask-type:alpha" maskUnits="userSpaceOnUse" x="0" y="0" width="48" height="48">
<path d="M24 48C37.2548 48 48 37.2548 48 24C48 10.7452 37.2548 0 24 0C10.7452 0 0 10.7452 0 24C0 37.2548 10.7452 48 24 48Z" style="fill:var(--accent-primary);fill-opacity:1;"/>
</mask>
<g mask="url(#mask0_11_38)">
<path d="M24 48C37.2548 48 48 37.2548 48 24C48 10.7452 37.2548 0 24 0C10.7452 0 0 10.7452 0 24C0 37.2548 10.7452 48 24 48Z" style="fill:var(--accent-primary);fill-opacity:1;"/>
<path d="M-2.15332 19.1421L13.7087 16.3452L14.6666 21.7778L9.80403 22.6352L12.1663 36.0324L6.04619 37.1115L3.68392 23.7144L-1.1954 24.5748L-2.15332 19.1421Z" fill="black" style="fill:black;fill-opacity:1;"/>
<path d="M14.0377 16.2872L20.1578 15.2081L21.3257 21.8311L26.2218 20.9678L25.054 14.3447L31.1741 13.2656L34.4942 32.0954L28.3741 33.1746L27.1501 26.2328L22.254 27.0961L23.478 34.0379L17.3579 35.117L14.0377 16.2872Z" fill="black" style="fill:black;fill-opacity:1;"/>
<path d="M40.1783 23.6071L47.841 22.256L47.0458 17.7456L39.383 19.0967L39.0371 17.1349L46.8674 15.7542L45.9686 10.6569L32.0182 13.1167L35.3383 31.9465L49.2889 29.4868L48.3901 24.3894L40.5596 25.7701L40.1783 23.6071Z" fill="black" style="fill:black;fill-opacity:1;"/>
<path d="M40.9706 40.9706C50.3431 31.598 50.3431 16.402 40.9706 7.02944C31.598 -2.34315 16.402 -2.34315 7.02943 7.02944C-2.34315 16.402 -2.34315 31.598 7.02943 40.9706C16.402 50.3431 31.598 50.3431 40.9706 40.9706Z" fill="url(#paint0_linear_11_38)" style=""/>
</g>
</g>
<path d="M89.5678 21.4219C88.7709 22.0312 88.1616 22.8359 87.7397 23.8359V39H81.5756V4.17188H87.7397V19.2891C88.3803 18.2266 89.3178 17.375 90.5522 16.7344C91.7866 16.0938 93.2553 15.7734 94.9584 15.7734C97.1772 15.7734 98.9741 16.4219 100.349 17.7188C101.74 19.0156 102.435 21.1562 102.435 24.1406V39H96.2709V24.8906C96.2709 23.3125 95.9272 22.1875 95.2397 21.5156C94.5522 20.8438 93.5991 20.5078 92.3803 20.5078C91.3178 20.5078 90.3803 20.8125 89.5678 21.4219Z" fill="#D5FF00" style="fill:var(--accent-primary);fill-opacity:1;"/>
<path fill-rule="evenodd" clip-rule="evenodd" d="M107.886 18.8203C105.807 20.9297 104.768 23.7344 104.768 27.2344V27.9844C104.768 31.5156 105.8 34.3359 107.862 36.4453C109.925 38.5391 112.823 39.5859 116.557 39.5859C119.182 39.5859 121.323 39.0938 122.979 38.1094C124.651 37.125 125.839 35.8672 126.542 34.3359L121.784 32.2266C121.284 33.0391 120.589 33.7188 119.698 34.2656C118.823 34.8125 117.753 35.0859 116.487 35.0859C114.659 35.0859 113.268 34.4531 112.315 33.1875C111.491 32.0745 111.029 30.6292 110.93 28.8516H126.776V26.9062C126.776 23.3906 125.847 20.6328 123.987 18.6328C122.143 16.6328 119.526 15.6328 116.136 15.6328C112.729 15.6328 109.979 16.6953 107.886 18.8203ZM112.222 21.9844C111.588 22.8899 111.183 23.9759 111.009 25.2422H120.753V24.9375C120.753 23.6094 120.37 22.4766 119.604 21.5391C118.854 20.5859 117.698 20.1094 116.136 20.1094C114.417 20.1094 113.112 20.7344 112.222 21.9844Z" fill="#D5FF00" style="fill:var(--accent-primary);fill-opacity:1;"/>
<path fill-rule="evenodd" clip-rule="evenodd" d="M130.68 26.1094L131.125 16.2891H149.336V34.3359H152.664V45.2812H146.922V39H132.438V45.2812H126.696V34.3359H129.161C129.561 33.5217 129.88 32.5139 130.118 31.3125C130.399 29.9688 130.586 28.2344 130.68 26.1094ZM136.071 27.0234L136.375 20.9531H143.172V34.3359H134.943C135.233 33.5792 135.469 32.6261 135.649 31.4766C135.852 30.1797 135.993 28.6953 136.071 27.0234Z" fill="#D5FF00" style="fill:var(--accent-primary);fill-opacity:1;"/>
<path fill-rule="evenodd" clip-rule="evenodd" d="M155.748 26.9531C153.92 28.2656 153.006 30.0938 153.006 32.4375C153.006 34.7031 153.717 36.4297 155.138 37.6172C156.576 38.7891 158.459 39.375 160.787 39.375C162.756 39.375 164.381 39.0156 165.662 38.2969C166.959 37.5625 167.865 36.7422 168.381 35.8359C168.443 36.4141 168.545 36.9922 168.685 37.5703C168.842 38.1328 169.037 38.6094 169.271 39H175.295V38.6484C174.982 38.0078 174.748 37.2578 174.592 36.3984C174.451 35.5391 174.381 34.6328 174.381 33.6797V23.5312C174.381 20.7969 173.545 18.8047 171.873 17.5547C170.217 16.3047 167.81 15.6797 164.654 15.6797C161.513 15.6797 159.013 16.3359 157.154 17.6484C155.295 18.9453 154.365 20.5938 154.365 22.5938V23.1328H160.224V22.7109C160.224 21.7891 160.56 21.0469 161.232 20.4844C161.904 19.9219 162.935 19.6406 164.326 19.6406C165.717 19.6406 166.709 19.9688 167.302 20.625C167.912 21.2812 168.217 22.2031 168.217 23.3906V24.9844H162.943C159.99 24.9844 157.592 25.6406 155.748 26.9531ZM160.084 34.5703C159.443 33.9609 159.123 33.1016 159.123 31.9922C159.123 30.8359 159.552 29.9688 160.412 29.3906C161.287 28.7969 162.623 28.5 164.42 28.5H168.217V30.8906C168.217 32.0781 167.685 33.1406 166.623 34.0781C165.56 35 164.349 35.4609 162.99 35.4609C161.709 35.4609 160.74 35.1641 160.084 34.5703Z" fill="#D5FF00" style="fill:var(--accent-primary);fill-opacity:1;"/>
<path d="M183.839 22.1719C183.839 23.7188 184.167 24.8203 184.823 25.4766C185.495 26.1328 186.605 26.4609 188.152 26.4609C189.495 26.4609 190.698 26.3594 191.761 26.1562L191.855 26.1382V16.2891H197.995V39H191.855V30.5825C191.678 30.6155 191.498 30.6479 191.316 30.6797C189.988 30.8984 188.402 31.0078 186.558 31.0078C183.636 31.0078 181.425 30.3516 179.925 29.0391C178.441 27.7109 177.698 25.6094 177.698 22.7344V16.2891H183.839V22.1719Z" fill="#D5FF00" style="fill:var(--accent-primary);fill-opacity:1;"/>
<path d="M239.529 26.5078L232.615 39H226.17V16.2891H232.311V28.5469C232.311 29.0938 232.303 29.6016 232.287 30.0703C232.287 30.5234 232.264 31.0312 232.217 31.5938H232.381C232.615 31.0781 232.826 30.6484 233.014 30.3047C233.201 29.9609 233.475 29.4375 233.834 28.7344L240.772 16.2891H247.193V39H241.076V25.1719C241.092 24.7188 241.115 24.2109 241.147 23.6484H240.959C240.725 24.1641 240.522 24.5938 240.35 24.9375C240.178 25.2812 239.904 25.8047 239.529 26.5078Z" fill="#D5FF00" style="fill:var(--accent-primary);fill-opacity:1;"/>
<path d="M259.187 29.7891L265.886 39H273.128L264.354 27.1147L272.003 16.2891H265.23L259.066 25.1719H257.097V16.2891H250.933V39H257.097V29.7891H259.187Z" fill="#D5FF00" style="fill:var(--accent-primary);fill-opacity:1;"/>
<path d="M54.3516 9.9375V4.875H80.1094V9.9375H70.4531V39H64.0312V9.9375H54.3516Z" fill="#D5FF00" style="fill:var(--accent-primary);fill-opacity:1;"/>
<path d="M207.899 16.2891H201.735V39H207.899V29.7656H216.29V39H222.454V16.2891H216.29V25.1719H207.899V16.2891Z" fill="#D5FF00" style="fill:var(--accent-primary);fill-opacity:1;"/>
<defs>
<linearGradient id="paint0_linear_11_38" x1="7.02943" y1="7.02944" x2="40.9706" y2="40.9706" gradientUnits="userSpaceOnUse">
<stop stop-color="white" stop-opacity="0.2" style="stop-color:white;stop-opacity:0.2;"/>
<stop offset="1" stop-opacity="0" style="stop-color:none;stop-opacity:0;"/>
</linearGradient>
<clipPath id="clip0_11_38">
<rect width="48" height="48" fill="white" style="fill:white;fill-opacity:1;"/>
</clipPath>
</defs>
</svg>
