<svg width="24" height="24" viewBox="0 0 24 24" fill="none" xmlns="http://www.w3.org/2000/svg">
<g clip-path="url(#clip0_46_27)">
<path d="M7.83063 20.1501C8.29811 18.5918 8.33897 17.3007 6.29407 17.7116C4.93739 17.9842 4.15914 16.9978 3.98717 15.9795C3.76987 14.6929 4.81207 11.8135 4.52895 10.5397C3.40883 5.50018 6.41281 1.36938 12 1.35951C17.6078 1.34961 20.594 5.49139 19.4721 10.539C19.1889 11.813 20.2306 14.6938 20.0127 15.9806C19.8404 16.9984 19.0623 17.9841 17.7062 17.7116C15.6614 17.3007 15.7025 18.592 16.1699 20.1501C16.321 20.6538 16.057 21.1926 15.5545 21.3478C13.1265 22.0976 10.8741 22.0976 8.44599 21.3478C7.94348 21.1926 7.6795 20.6538 7.83063 20.1501Z" fill="white" stroke="#131313" style="fill:white;fill-opacity:1;stroke:#131313;stroke:color(display-p3 0.0745 0.0745 0.0745);stroke-opacity:1;" stroke-width="2" stroke-linecap="square" stroke-linejoin="round"/>
<path d="M10.9408 12.1137L8.25299 11.0328C6.26919 10.2349 5.44141 14.7426 7.51401 14.9591C8.2026 15.0311 8.93702 14.9781 9.50149 14.9066C10.116 14.8288 10.6352 14.414 10.7622 13.8078C10.9408 12.9553 10.9408 12.1137 10.9408 12.1137Z" fill="#131313" style="fill:#131313;fill:color(display-p3 0.0745 0.0745 0.0745);fill-opacity:1;"/>
<path d="M13.0599 12.1137L15.7477 11.0328C17.7315 10.2349 18.5592 14.7426 16.4866 14.9591C15.7981 15.0311 15.0636 14.9781 14.4992 14.9066C13.8847 14.8288 13.3655 14.414 13.2385 13.8078C13.0599 12.9553 13.0599 12.1137 13.0599 12.1137Z" fill="#131313" style="fill:#131313;fill:color(display-p3 0.0745 0.0745 0.0745);fill-opacity:1;"/>
<path fill-rule="evenodd" clip-rule="evenodd" d="M11.1114 17.4237C10.7231 17.2474 10.5844 16.7859 10.7101 16.3783L11.0325 15.3333C11.1618 14.9141 11.5493 14.6281 11.988 14.6281L12.012 14.6281C12.4508 14.6281 12.8383 14.9141 12.9676 15.3333L13.2899 16.3783C13.4157 16.7859 13.277 17.2474 12.8886 17.4237C12.2883 17.6962 11.7117 17.6962 11.1114 17.4237Z" fill="#131313" style="fill:#131313;fill:color(display-p3 0.0745 0.0745 0.0745);fill-opacity:1;"/>
</g>
<defs>
<clipPath id="clip0_46_27">
<rect width="24" height="24" fill="white" style="fill:white;fill-opacity:1;"/>
</clipPath>
</defs>
</svg>
